<svg width="48" height="41" viewBox="0 0 48 41" fill="none" xmlns="http://www.w3.org/2000/svg">
<path d="M19.0807 3.61559C15.1498 3.47037 11.9128 6.54359 11.8539 10.4767C11.8439 11.1446 11.3169 11.6449 10.6494 11.6203C10.0561 11.5983 9.4705 11.057 9.4805 10.3891C9.55832 5.19433 13.9245 1.04905 19.1163 1.24086C24.3823 1.43541 28.6195 5.89854 28.5417 11.0933C28.5317 11.7612 27.9306 12.2587 27.3372 12.2368C26.6697 12.2121 26.1583 11.6735 26.1683 11.0056C26.2273 7.07243 23.0858 3.76356 19.0807 3.61559ZM23.726 15.5189L41.4833 14.0959C42.5239 13.9859 43.5534 14.6179 43.9098 15.5964L46.1998 21.2498C46.9159 22.9841 45.9228 24.8779 44.063 25.1805L32.2292 27.4906C30.8144 27.8096 29.4141 27.1638 28.5419 25.9436L23.6041 18.7073L18.5292 25.5737C17.6214 26.7281 16.2033 27.2698 14.7997 26.8467L3.04805 23.6652C1.19941 23.2256 0.264123 21.2605 1.03137 19.5811L3.48813 14.103C3.87342 13.152 4.92067 12.5966 5.9568 12.7834L23.726 15.5189ZM3.16891 20.5511C3.01501 20.9167 3.23196 21.2959 3.60169 21.3838L15.3533 24.5653C15.7961 24.7302 16.3186 24.5267 16.6208 24.1666L21.5429 17.5916L5.62455 15.1472L3.16891 20.5511ZM30.4903 24.679C30.7814 25.061 31.2972 25.3029 31.7445 25.1709L43.5783 22.8608C43.9503 22.8003 44.1783 22.4374 44.0356 22.0609L41.7444 16.4816L25.7705 17.7478L30.4903 24.679ZM42.5463 27.352L42.4674 32.6209C42.4429 34.2536 41.3093 35.6225 39.6709 36.0074L24.1861 39.2964C23.5917 39.3487 23.0725 39.3295 22.4803 39.2334L7.11111 34.8045C5.48608 34.299 4.39468 32.8479 4.41914 31.2152L4.49806 25.9463L6.86144 26.7019L6.79252 31.3029C6.78473 31.8224 7.14779 32.3556 7.74003 32.4517L22.1483 36.6223L22.3029 26.3071C22.3118 25.7134 22.914 25.1416 23.5073 25.1636C24.1749 25.1882 24.7593 25.8038 24.7504 26.3975L24.5959 36.7128L39.1132 33.6108C39.7076 33.5585 40.0121 33.05 40.0198 32.5305L40.0888 27.9295L42.5463 27.352ZM34.3943 11.755C34.1629 12.3405 33.491 12.6126 32.8257 12.4396C32.2357 12.195 31.949 11.5162 32.1073 10.8537L34.5874 3.81723C34.8188 3.23176 35.4908 2.95958 36.1561 3.13267C36.7461 3.37722 37.0328 4.05607 36.8744 4.71849L34.3943 11.755Z" fill="#FF5B5D"/>
</svg>
