<svg width="44" height="34" viewBox="0 0 44 34" fill="none" xmlns="http://www.w3.org/2000/svg">
<path d="M40.9855 4.875C39.6495 4.875 38.6105 5.98828 38.6105 7.25C38.6105 7.84375 38.8331 8.36328 39.13 8.73438L31.337 14.9688C30.8917 15.3398 30.3722 15.4883 29.8527 15.4883C29.0363 15.4883 28.1456 14.9688 27.7745 14.1523L23.0245 4.65234C23.7667 4.28125 24.3605 3.46484 24.3605 2.5C24.3605 1.23828 23.2472 0.125 21.9855 0.125C20.6495 0.125 19.6105 1.23828 19.6105 2.5C19.6105 3.46484 20.13 4.28125 20.8722 4.65234L16.1222 14.1523C15.7511 14.9688 14.8605 15.4883 14.0441 15.4883C13.5245 15.4883 13.005 15.3398 12.5597 14.9688L4.76674 8.73438C5.06361 8.36328 5.36049 7.84375 5.36049 7.25C5.36049 5.98828 4.2472 4.875 2.98549 4.875C1.64955 4.875 0.610485 5.98828 0.610485 7.25C0.610485 8.58594 1.64955 9.625 2.98549 9.625C3.0597 9.625 3.20814 9.625 3.35658 9.55078L6.9933 29.5156C7.36439 31.7422 9.3683 33.375 11.6691 33.375H32.2277C34.5285 33.375 36.5324 31.7422 36.9035 29.5156L40.5402 9.55078C40.6886 9.625 40.837 9.625 40.9855 9.625C42.2472 9.625 43.3605 8.58594 43.3605 7.25C43.3605 5.98828 42.2472 4.875 40.9855 4.875ZM34.6027 29.0703C34.38 30.1836 33.4152 31 32.2277 31H11.6691C10.4816 31 9.51674 30.1836 9.29408 29.0703L6.39955 13.1133L11.0753 16.8242C11.8917 17.4922 12.9308 17.8633 14.0441 17.8633C15.8253 17.8633 17.4581 16.8242 18.2745 15.1914L21.9855 7.84375L25.6222 15.1914C26.4386 16.8242 28.0714 17.8633 29.8527 17.8633C30.966 17.8633 32.005 17.4922 32.8214 16.8242L37.4972 13.1133L34.6027 29.0703Z" fill="#FF5B5D"/>
</svg>
