<svg width="39" height="40" viewBox="0 0 39 40" fill="none" xmlns="http://www.w3.org/2000/svg">
<path d="M33.6242 0.882261L5.12673 1.26552C2.4551 1.30145 0.405598 3.48155 0.439922 6.07898L0.721376 27.3779C0.757661 30.1238 2.86306 32.1738 5.53469 32.1378L12.659 32.042L12.7404 38.2016C12.7503 38.9437 13.5715 39.3038 14.1593 38.8506L23.3456 31.8983L34.0321 31.7546C36.6295 31.7196 38.7532 29.5385 38.7189 26.9411L38.4365 5.56797C38.4022 2.97054 36.2216 0.847329 33.6242 0.882261ZM36.3441 26.973C36.3618 28.3089 35.2623 29.3628 34.0007 29.3798L23.24 29.5245C22.7205 29.5315 22.2782 29.7601 21.8368 30.0629L15.077 35.2754L15.0181 30.8227C15.0103 30.229 14.4088 29.6433 13.8151 29.6512L5.50331 29.763C4.16749 29.781 3.11479 28.756 3.09714 27.4202L2.81471 6.04704C2.79804 4.78543 3.82229 3.65827 5.15811 3.64031L33.6555 3.25705C34.9171 3.24009 36.045 4.3383 36.0617 5.59991L36.3441 26.973ZM19.8616 15.3929L19.2659 15.2524C16.7329 14.5442 16.4302 14.103 16.5668 13.2104C16.7728 11.9458 18.6242 11.624 20.335 11.8979C20.8554 11.9651 21.4511 12.1056 22.2704 12.3172C22.867 12.5319 23.53 12.1518 23.7448 11.5551C23.8854 10.9594 23.5797 10.2955 22.9831 10.0809C22.0144 9.797 21.2693 9.58435 20.6746 9.51812L20.657 8.1823C20.6491 7.5886 20.0476 7.00289 19.3797 7.01187C18.786 7.01985 18.2743 7.62054 18.2822 8.21424L18.2989 9.47584C16.0764 9.80263 14.5337 11.011 14.2604 12.7961C13.6376 16.2188 17.0641 17.1377 18.7026 17.561L19.2241 17.7024C22.1281 18.4056 22.7277 18.8429 22.5188 19.8849C22.3128 21.1495 20.4615 21.4713 18.7507 21.1974C18.156 21.1312 17.7097 21.0629 15.8456 20.42C15.1748 20.2063 14.5117 20.5864 14.297 21.1831C14.1564 21.7788 14.4621 22.4427 15.0587 22.6573C17.2949 23.3695 17.8163 23.5109 18.411 23.5772L18.4277 24.8388C18.4365 25.5067 19.037 26.0182 19.6307 26.0102C20.2986 26.0012 20.8113 25.4748 20.8024 24.8068L20.7867 23.6194C23.0092 23.2927 24.5519 22.0843 24.8995 20.2982C25.4471 16.8023 22.0958 15.9566 19.8616 15.3929Z" fill="#FF5B5D"/>
</svg>
